<?xml version="1.0" encoding="UTF-8"?>
<svg width="965px" height="930px" viewBox="0 0 965 930" version="1.1" xmlns="http://www.w3.org/2000/svg" xmlns:xlink="http://www.w3.org/1999/xlink">
    <g id="Page-1" stroke="none" stroke-width="1" fill="none" fill-rule="evenodd">
        <g id="blob" fill="#FFFFFE" fill-rule="nonzero">
            <path d="M718.8,115 C799.6,163.2 877.2,219.6 920.8,296.8 C964.6,374.2 974.2,472.4 955,562.6 C935.8,652.6 887.8,734.6 823.8,795.6 C759.8,856.6 680,896.4 597.4,915.2 C514.8,933.8 429.4,931.4 333,923.2 C236.4,915 128.4,901.2 77.6,839.6 C26.8,777.8 33.2,668.4 23.6,564.8 C14.2,461 -11.2,363.2 7.8,270.6 C27,178.2 90.6,91 175.2,44.8 C259.8,-1.6 365.4,-7.4 460,9.8 C554.6,26.8 638.2,66.8 718.8,115 Z" id="Path"></path>
        </g>
    </g>
</svg>
